<svg xmlns="http://www.w3.org/2000/svg" viewBox="0 0 600 720" width="600" height="720"><defs>
<linearGradient id="bgc" x1="0" y1="0" x2="0" y2="1"><stop offset="0" stop-color="#FFFFFF"/><stop offset="1" stop-color="#E6ECF6"/></linearGradient>
<linearGradient id="hdr" x1="0" y1="0" x2="1" y2="0"><stop offset="0" stop-color="#16315A"/><stop offset="1" stop-color="#0E2240"/></linearGradient>
<linearGradient id="gC" x1="0" x2="1"><stop offset="0" stop-color="#262C33"/><stop offset=".5" stop-color="#6D7986"/><stop offset="1" stop-color="#262C33"/></linearGradient>
<linearGradient id="gCu" x1="0" x2="1"><stop offset="0" stop-color="#9A4F22"/><stop offset=".5" stop-color="#F0AA72"/><stop offset="1" stop-color="#9A4F22"/></linearGradient>
<linearGradient id="gAg" x1="0" x2="1"><stop offset="0" stop-color="#8A909A"/><stop offset=".5" stop-color="#F4F6FA"/><stop offset="1" stop-color="#8A909A"/></linearGradient>
<linearGradient id="gZn" x1="0" x2="1"><stop offset="0" stop-color="#6F7E88"/><stop offset=".5" stop-color="#D3DEE6"/><stop offset="1" stop-color="#6F7E88"/></linearGradient>
<linearGradient id="gFe" x1="0" x2="1"><stop offset="0" stop-color="#323D45"/><stop offset=".5" stop-color="#8C97A0"/><stop offset="1" stop-color="#323D45"/></linearGradient>
<linearGradient id="liqB" x1="0" y1="0" x2="0" y2="1"><stop offset="0" stop-color="#6DB4FF" stop-opacity=".75"/><stop offset="1" stop-color="#2F7AE0" stop-opacity=".85"/></linearGradient>
<linearGradient id="liqM" x1="0" y1="0" x2="0" y2="1"><stop offset="0" stop-color="#FFB366" stop-opacity=".9"/><stop offset="1" stop-color="#F26A21" stop-opacity=".9"/></linearGradient>
<linearGradient id="liqW" x1="0" y1="0" x2="0" y2="1"><stop offset="0" stop-color="#CFE3FF" stop-opacity=".7"/><stop offset="1" stop-color="#9CC2F5" stop-opacity=".8"/></linearGradient>
<filter id="sh" x="-20%" y="-20%" width="140%" height="150%"><feDropShadow dx="0" dy="4" stdDeviation="5" flood-color="#0E2240" flood-opacity=".18"/></filter>
<filter id="glow" x="-80%" y="-80%" width="260%" height="260%"><feGaussianBlur stdDeviation="3" result="b"/><feMerge><feMergeNode in="b"/><feMergeNode in="SourceGraphic"/></feMerge></filter>
</defs><rect x="0" y="0" width="600" height="720" rx="28" fill="url(#bgc)" /><path d="M0,28 Q0,0 28,0 H572 Q600,0 600,28 V92 H0 Z" fill="url(#hdr)"/><rect x="0" y="90" width="600" height="4" rx="0" fill="#FFC21A" /><text x="300.0" y="44" font-size="27" font-weight="800" fill="#fff" text-anchor="middle" font-family="Georgia, 'Times New Roman', serif" >Jembatan Garam dan Notasi Sel</text><text x="300.0" y="70" font-size="14.5" font-weight="700" fill="#FFC21A" text-anchor="middle" font-family="Arial, 'Segoe UI', 'DejaVu Sans', sans-serif" >Menjaga muatan, menuliskan susunan</text><clipPath id="cp40360"><path d="M40,360 V532 Q40,550 58,550 H232 Q250,550 250,532 V360 Z"/></clipPath><rect x="40" y="432.2" width="210" height="117.80000000000001" fill="url(#liqW)" clip-path="url(#cp40360)"/><path d="M40,432.2 q26.25,-5 52.5,0 t52.5,0 t52.5,0 t52.5,0" stroke="#fff" stroke-opacity=".7" stroke-width="2" fill="none" clip-path="url(#cp40360)"/><path d="M40,360 V532 Q40,550 58,550 H232 Q250,550 250,532 V360" fill="rgba(255,255,255,.18)" stroke="#0E2240" stroke-width="4" stroke-linejoin="round"/><line x1="30" y1="360" x2="42" y2="360" stroke="#0E2240" stroke-width="4" stroke-linecap="round"/><line x1="248" y1="360" x2="260" y2="360" stroke="#0E2240" stroke-width="4" stroke-linecap="round"/><path d="M54,374 V520" stroke="#fff" stroke-width="5" fill="none" stroke-linecap="round" stroke-linejoin="round" opacity=".45"/><clipPath id="cp350360"><path d="M350,360 V532 Q350,550 368,550 H542 Q560,550 560,532 V360 Z"/></clipPath><rect x="350" y="432.2" width="210" height="117.80000000000001" fill="url(#liqB)" clip-path="url(#cp350360)"/><path d="M350,432.2 q26.25,-5 52.5,0 t52.5,0 t52.5,0 t52.5,0" stroke="#fff" stroke-opacity=".7" stroke-width="2" fill="none" clip-path="url(#cp350360)"/><path d="M350,360 V532 Q350,550 368,550 H542 Q560,550 560,532 V360" fill="rgba(255,255,255,.18)" stroke="#0E2240" stroke-width="4" stroke-linejoin="round"/><line x1="340" y1="360" x2="352" y2="360" stroke="#0E2240" stroke-width="4" stroke-linecap="round"/><line x1="558" y1="360" x2="570" y2="360" stroke="#0E2240" stroke-width="4" stroke-linecap="round"/><path d="M364,374 V520" stroke="#fff" stroke-width="5" fill="none" stroke-linecap="round" stroke-linejoin="round" opacity=".45"/><path d="M205,482 V314 Q205,300 219,300 H381 Q395,300 395,314 V482" stroke="#B7C7E4" stroke-width="26" fill="none" stroke-linecap="round" stroke-linejoin="round" opacity=".7"/><path d="M205,482 V314 Q205,300 219,300 H381 Q395,300 395,314 V482" stroke="#EAF1FF" stroke-width="18" fill="none" stroke-linecap="round" stroke-linejoin="round" opacity=".95"/><circle cx="205" cy="482" r="9" fill="#EFE7CF" stroke="#BFB48F" stroke-width="1.5" /><circle cx="395" cy="482" r="9" fill="#EFE7CF" stroke="#BFB48F" stroke-width="1.5" /><circle cx="250" cy="300" r="11" fill="#F26A21" stroke="rgba(255,255,255,.85)" stroke-width="1.5" /><text x="250" y="303.42" font-size="9.5" font-weight="800" fill="#fff" text-anchor="middle" font-family="Arial, 'Segoe UI', 'DejaVu Sans', sans-serif" >K⁺</text><circle cx="350" cy="300" r="11" fill="#F26A21" stroke="rgba(255,255,255,.85)" stroke-width="1.5" /><text x="350" y="303.42" font-size="9.5" font-weight="800" fill="#fff" text-anchor="middle" font-family="Arial, 'Segoe UI', 'DejaVu Sans', sans-serif" >K⁺</text><circle cx="300" cy="300" r="13" fill="#25508C" stroke="rgba(255,255,255,.85)" stroke-width="1.5" /><text x="300" y="302.88" font-size="8" font-weight="800" fill="#fff" text-anchor="middle" font-family="Arial, 'Segoe UI', 'DejaVu Sans', sans-serif" >NO₃⁻</text><rect x="109.0" y="252" width="22" height="270" rx="4" fill="url(#gZn)" stroke="#0E2240" stroke-width="1.5" /><rect x="107.0" y="244" width="26" height="14" rx="3" fill="#3A557F" stroke="#0E2240" stroke-width="1.5" /><rect x="469.0" y="252" width="22" height="270" rx="4" fill="url(#gCu)" stroke="#0E2240" stroke-width="1.5" /><rect x="467.0" y="244" width="26" height="14" rx="3" fill="#3A557F" stroke="#0E2240" stroke-width="1.5" /><text x="201" y="276" font-size="13" font-weight="800" fill="#25508C" text-anchor="end" font-family="Arial, 'Segoe UI', 'DejaVu Sans', sans-serif" >◀ anion</text><text x="399" y="276" font-size="13" font-weight="800" fill="#F26A21" text-anchor="start" font-family="Arial, 'Segoe UI', 'DejaVu Sans', sans-serif" >kation ▶</text><text x="98" y="330" font-size="13" font-weight="800" fill="#25508C" text-anchor="end" font-family="Arial, 'Segoe UI', 'DejaVu Sans', sans-serif" >ANODA</text><text x="502" y="330" font-size="13" font-weight="800" fill="#F26A21" text-anchor="start" font-family="Arial, 'Segoe UI', 'DejaVu Sans', sans-serif" >KATODA</text><text x="300" y="240" font-size="15" font-weight="800" fill="#0E2240" text-anchor="middle" font-family="Arial, 'Segoe UI', 'DejaVu Sans', sans-serif" >Jembatan garam menjaga kenetralan muatan</text><text x="300" y="262" font-size="13" font-weight="700" fill="#5A6B84" text-anchor="middle" font-family="Arial, 'Segoe UI', 'DejaVu Sans', sans-serif" >tanpa mencampur kedua larutan</text><rect x="30" y="572" width="540" height="124" rx="16" fill="#fff" stroke="#FFC21A" stroke-width="2" filter="url(#sh)"/><text x="300" y="604" font-size="14.5" font-weight="800" fill="#5A6B84" text-anchor="middle" font-family="Arial, 'Segoe UI', 'DejaVu Sans', sans-serif" >Notasi sel</text><text x="300" y="640" font-size="21" font-weight="800" fill="#0E2240" text-anchor="middle" font-family="Georgia, 'Times New Roman', serif" >Zn(s) | Zn²⁺(aq) ‖ Cu²⁺(aq) | Cu(s)</text><text x="140" y="672" font-size="14" font-weight="800" fill="#25508C" text-anchor="middle" font-family="Arial, 'Segoe UI', 'DejaVu Sans', sans-serif" >anoda</text><text x="460" y="672" font-size="14" font-weight="800" fill="#F26A21" text-anchor="middle" font-family="Arial, 'Segoe UI', 'DejaVu Sans', sans-serif" >katoda</text><text x="300" y="672" font-size="12.5" font-weight="700" fill="#5A6B84" text-anchor="middle" font-family="Arial, 'Segoe UI', 'DejaVu Sans', sans-serif" >jembatan garam</text></svg>