<svg xmlns="http://www.w3.org/2000/svg" viewBox="0 0 600 720" width="600" height="720"><defs>
<linearGradient id="bgc" x1="0" y1="0" x2="0" y2="1"><stop offset="0" stop-color="#FFFFFF"/><stop offset="1" stop-color="#E6ECF6"/></linearGradient>
<linearGradient id="hdr" x1="0" y1="0" x2="1" y2="0"><stop offset="0" stop-color="#16315A"/><stop offset="1" stop-color="#0E2240"/></linearGradient>
<linearGradient id="gC" x1="0" x2="1"><stop offset="0" stop-color="#262C33"/><stop offset=".5" stop-color="#6D7986"/><stop offset="1" stop-color="#262C33"/></linearGradient>
<linearGradient id="gCu" x1="0" x2="1"><stop offset="0" stop-color="#9A4F22"/><stop offset=".5" stop-color="#F0AA72"/><stop offset="1" stop-color="#9A4F22"/></linearGradient>
<linearGradient id="gAg" x1="0" x2="1"><stop offset="0" stop-color="#8A909A"/><stop offset=".5" stop-color="#F4F6FA"/><stop offset="1" stop-color="#8A909A"/></linearGradient>
<linearGradient id="gFe" x1="0" x2="1"><stop offset="0" stop-color="#323D45"/><stop offset=".5" stop-color="#8C97A0"/><stop offset="1" stop-color="#323D45"/></linearGradient>
<linearGradient id="liqB" x1="0" y1="0" x2="0" y2="1"><stop offset="0" stop-color="#6DB4FF" stop-opacity=".75"/><stop offset="1" stop-color="#2F7AE0" stop-opacity=".85"/></linearGradient>
<linearGradient id="liqM" x1="0" y1="0" x2="0" y2="1"><stop offset="0" stop-color="#FFB366" stop-opacity=".9"/><stop offset="1" stop-color="#F26A21" stop-opacity=".9"/></linearGradient>
<linearGradient id="liqW" x1="0" y1="0" x2="0" y2="1"><stop offset="0" stop-color="#CFE3FF" stop-opacity=".7"/><stop offset="1" stop-color="#9CC2F5" stop-opacity=".8"/></linearGradient>
<filter id="sh" x="-20%" y="-20%" width="140%" height="150%"><feDropShadow dx="0" dy="4" stdDeviation="5" flood-color="#0E2240" flood-opacity=".18"/></filter>
<filter id="glow" x="-80%" y="-80%" width="260%" height="260%"><feGaussianBlur stdDeviation="3" result="b"/><feMerge><feMergeNode in="b"/><feMergeNode in="SourceGraphic"/></feMerge></filter>
</defs><rect x="0" y="0" width="600" height="720" rx="28" fill="url(#bgc)" /><path d="M0,28 Q0,0 28,0 H572 Q600,0 600,28 V92 H0 Z" fill="url(#hdr)"/><rect x="0" y="90" width="600" height="4" rx="0" fill="#FFC21A" /><text x="300.0" y="44" font-size="27" font-weight="800" fill="#fff" text-anchor="middle" font-family="Georgia, 'Times New Roman', serif" >Mengenal Sel Elektrolisis</text><text x="300.0" y="70" font-size="14.5" font-weight="700" fill="#FFC21A" text-anchor="middle" font-family="Arial, 'Segoe UI', 'DejaVu Sans', sans-serif" >Dua jenis sel elektrokimia</text><rect x="30" y="112" width="540" height="268" rx="16" fill="#fff" stroke="#D7DEEA" stroke-width="2" filter="url(#sh)"/><rect x="47.0" y="124.0" width="150" height="28" rx="14.0" fill="#0E2240" /><text x="122" y="142.9" font-size="14" font-weight="800" fill="#fff" text-anchor="middle" font-family="Arial, 'Segoe UI', 'DejaVu Sans', sans-serif" >SEL VOLTA</text><clipPath id="cp70200"><path d="M70,200 V282 Q70,300 88,300 H182 Q200,300 200,282 V200 Z"/></clipPath><rect x="70" y="240.0" width="130" height="60.0" fill="url(#liqB)" clip-path="url(#cp70200)"/><path d="M70,240.0 q16.25,-5 32.5,0 t32.5,0 t32.5,0 t32.5,0" stroke="#fff" stroke-opacity=".7" stroke-width="2" fill="none" clip-path="url(#cp70200)"/><path d="M70,200 V282 Q70,300 88,300 H182 Q200,300 200,282 V200" fill="rgba(255,255,255,.18)" stroke="#0E2240" stroke-width="4" stroke-linejoin="round"/><line x1="60" y1="200" x2="72" y2="200" stroke="#0E2240" stroke-width="4" stroke-linecap="round"/><line x1="198" y1="200" x2="210" y2="200" stroke="#0E2240" stroke-width="4" stroke-linecap="round"/><path d="M84,214 V270" stroke="#fff" stroke-width="5" fill="none" stroke-linecap="round" stroke-linejoin="round" opacity=".45"/><rect x="99.0" y="178" width="18" height="104" rx="4" fill="url(#gCu)" stroke="#0E2240" stroke-width="1.5" /><rect x="97.0" y="170" width="22" height="14" rx="3" fill="#3A557F" stroke="#0E2240" stroke-width="1.5" /><rect x="153.0" y="178" width="18" height="104" rx="4" fill="url(#gAg)" stroke="#0E2240" stroke-width="1.5" /><rect x="151.0" y="170" width="22" height="14" rx="3" fill="#3A557F" stroke="#0E2240" stroke-width="1.5" /><path d="M108,176 V160 H162 V176" stroke="#25508C" stroke-width="4" fill="none" stroke-linecap="round" stroke-linejoin="round" /><line x1="222" y1="232" x2="322.0" y2="232.0" stroke="#F26A21" stroke-width="5" stroke-linecap="round"/><polygon points="330.0,232.0 320.1,236.8 320.1,227.2" fill="#F26A21"/><text x="276" y="215" font-size="13" font-weight="700" fill="#5A6B84" text-anchor="middle" font-family="Arial, 'Segoe UI', 'DejaVu Sans', sans-serif" >reaksi spontan</text><circle cx="420" cy="226" r="58" fill="rgba(255,194,26,.25)" /><circle cx="420" cy="226" r="44" fill="rgba(255,194,26,.35)" /><line x1="462.4984584955192" y1="243.60343788879413" x2="475.4327719506772" y2="248.9610059419054" stroke="#FFC21A" stroke-width="4" stroke-linecap="round"/><line x1="437.60343788879413" y1="268.4984584955192" x2="442.9610059419054" y2="281.4327719506772" stroke="#FFC21A" stroke-width="4" stroke-linecap="round"/><line x1="402.39656211120587" y1="268.4984584955192" x2="397.0389940580946" y2="281.4327719506772" stroke="#FFC21A" stroke-width="4" stroke-linecap="round"/><line x1="377.5015415044808" y1="243.60343788879413" x2="364.5672280493228" y2="248.9610059419054" stroke="#FFC21A" stroke-width="4" stroke-linecap="round"/><line x1="377.5015415044808" y1="208.39656211120587" x2="364.5672280493228" y2="203.03899405809463" stroke="#FFC21A" stroke-width="4" stroke-linecap="round"/><line x1="402.39656211120587" y1="183.5015415044808" x2="397.03899405809466" y2="170.56722804932278" stroke="#FFC21A" stroke-width="4" stroke-linecap="round"/><line x1="437.60343788879413" y1="183.50154150448083" x2="442.9610059419054" y2="170.5672280493228" stroke="#FFC21A" stroke-width="4" stroke-linecap="round"/><line x1="462.4984584955192" y1="208.39656211120587" x2="475.4327719506772" y2="203.03899405809463" stroke="#FFC21A" stroke-width="4" stroke-linecap="round"/><circle cx="420" cy="226" r="32" fill="#FFE9A8" stroke="#FFC21A" stroke-width="4" /><path d="M406,238 L412,218 L420,240 L428,218 L434,238" stroke="#F26A21" stroke-width="3.5" fill="none" stroke-linecap="round" stroke-linejoin="round" /><rect x="404" y="254" width="32" height="18" rx="4" fill="#8795AD" stroke="#0E2240" stroke-width="2" /><text x="300" y="340" font-size="19" font-weight="800" fill="#0E2240" text-anchor="middle" font-family="Arial, 'Segoe UI', 'DejaVu Sans', sans-serif" >Energi kimia → energi listrik</text><text x="300" y="362" font-size="13.5" font-weight="600" fill="#5A6B84" text-anchor="middle" font-family="Arial, 'Segoe UI', 'DejaVu Sans', sans-serif" >menghasilkan arus tanpa sumber luar</text><rect x="30" y="400" width="540" height="292" rx="16" fill="#fff" stroke="#D7DEEA" stroke-width="2" filter="url(#sh)"/><rect x="45.0" y="413.0" width="250" height="30" rx="15.0" fill="#F26A21" /><text x="170" y="433.25" font-size="15" font-weight="800" fill="#fff" text-anchor="middle" font-family="Arial, 'Segoe UI', 'DejaVu Sans', sans-serif" >SEL ELEKTROLISIS</text><rect x="56.0" y="516.0" width="96" height="48" rx="9" fill="#0E2240" stroke="#3E5E94" stroke-width="2.5" filter="url(#sh)"/><rect x="152.0" y="531" width="8" height="18" rx="2" fill="#3E5E94" /><text x="76.0" y="548" font-size="26" font-weight="800" fill="#8FB4F2" text-anchor="middle" font-family="Arial, 'Segoe UI', 'DejaVu Sans', sans-serif" >−</text><text x="132.0" y="548" font-size="24" font-weight="800" fill="#F26A21" text-anchor="middle" font-family="Arial, 'Segoe UI', 'DejaVu Sans', sans-serif" >+</text><text x="104" y="546" font-size="15" font-weight="800" fill="#4ADE80" text-anchor="middle" font-family="Arial, 'Segoe UI', 'DejaVu Sans', sans-serif" >6 V</text><line x1="172" y1="540" x2="284.0" y2="540.0" stroke="#F26A21" stroke-width="5" stroke-linecap="round"/><polygon points="292.0,540.0 282.1,544.8 282.1,535.2" fill="#F26A21"/><text x="232" y="523" font-size="13" font-weight="700" fill="#5A6B84" text-anchor="middle" font-family="Arial, 'Segoe UI', 'DejaVu Sans', sans-serif" >arus listrik</text><clipPath id="cp332466"><path d="M332,466 V584 Q332,602 350,602 H484 Q502,602 502,584 V466 Z"/></clipPath><rect x="332" y="517.68" width="170" height="84.32000000000005" fill="url(#liqB)" clip-path="url(#cp332466)"/><path d="M332,517.68 q21.25,-5 42.5,0 t42.5,0 t42.5,0 t42.5,0" stroke="#fff" stroke-opacity=".7" stroke-width="2" fill="none" clip-path="url(#cp332466)"/><path d="M332,466 V584 Q332,602 350,602 H484 Q502,602 502,584 V466" fill="rgba(255,255,255,.18)" stroke="#0E2240" stroke-width="4" stroke-linejoin="round"/><line x1="322" y1="466" x2="334" y2="466" stroke="#0E2240" stroke-width="4" stroke-linecap="round"/><line x1="500" y1="466" x2="512" y2="466" stroke="#0E2240" stroke-width="4" stroke-linecap="round"/><path d="M346,480 V572" stroke="#fff" stroke-width="5" fill="none" stroke-linecap="round" stroke-linejoin="round" opacity=".45"/><rect x="365.0" y="440" width="18" height="140" rx="4" fill="url(#gC)" stroke="#0E2240" stroke-width="1.5" /><rect x="363.0" y="432" width="22" height="14" rx="3" fill="#3A557F" stroke="#0E2240" stroke-width="1.5" /><rect x="451.0" y="440" width="18" height="140" rx="4" fill="url(#gC)" stroke="#0E2240" stroke-width="1.5" /><rect x="449.0" y="432" width="22" height="14" rx="3" fill="#3A557F" stroke="#0E2240" stroke-width="1.5" /><path d="M374,438 V420 H460 V438" stroke="#25508C" stroke-width="4" fill="none" stroke-linecap="round" stroke-linejoin="round" /><circle cx="392" cy="540" r="5" fill="#fff" stroke="rgba(255,255,255,.9)" stroke-width="1.2" fill-opacity=".55"/><circle cx="352" cy="515" r="4" fill="#fff" stroke="rgba(255,255,255,.9)" stroke-width="1.2" fill-opacity=".55"/><circle cx="394" cy="490" r="3.5" fill="#fff" stroke="rgba(255,255,255,.9)" stroke-width="1.2" fill-opacity=".55"/><circle cx="478" cy="548" r="6" fill="#fff" stroke="rgba(255,255,255,.9)" stroke-width="1.2" fill-opacity=".55"/><circle cx="440" cy="520" r="4.5" fill="#fff" stroke="rgba(255,255,255,.9)" stroke-width="1.2" fill-opacity=".55"/><circle cx="480" cy="495" r="3.5" fill="#fff" stroke="rgba(255,255,255,.9)" stroke-width="1.2" fill-opacity=".55"/><text x="300" y="646" font-size="19" font-weight="800" fill="#0E2240" text-anchor="middle" font-family="Arial, 'Segoe UI', 'DejaVu Sans', sans-serif" >Energi listrik → energi kimia</text><text x="300" y="668" font-size="13.5" font-weight="600" fill="#5A6B84" text-anchor="middle" font-family="Arial, 'Segoe UI', 'DejaVu Sans', sans-serif" >memaksa reaksi tidak spontan berlangsung</text></svg>