<svg xmlns="http://www.w3.org/2000/svg" viewBox="0 0 1280 800" width="1280" height="800"><defs>
<linearGradient id="bgc" x1="0" y1="0" x2="0" y2="1"><stop offset="0" stop-color="#FFFFFF"/><stop offset="1" stop-color="#E6ECF6"/></linearGradient>
<linearGradient id="hdr" x1="0" y1="0" x2="1" y2="0"><stop offset="0" stop-color="#16315A"/><stop offset="1" stop-color="#0E2240"/></linearGradient>
<linearGradient id="gC" x1="0" x2="1"><stop offset="0" stop-color="#262C33"/><stop offset=".5" stop-color="#6D7986"/><stop offset="1" stop-color="#262C33"/></linearGradient>
<linearGradient id="gCu" x1="0" x2="1"><stop offset="0" stop-color="#9A4F22"/><stop offset=".5" stop-color="#F0AA72"/><stop offset="1" stop-color="#9A4F22"/></linearGradient>
<linearGradient id="gAg" x1="0" x2="1"><stop offset="0" stop-color="#8A909A"/><stop offset=".5" stop-color="#F4F6FA"/><stop offset="1" stop-color="#8A909A"/></linearGradient>
<linearGradient id="gZn" x1="0" x2="1"><stop offset="0" stop-color="#6F7E88"/><stop offset=".5" stop-color="#D3DEE6"/><stop offset="1" stop-color="#6F7E88"/></linearGradient>
<linearGradient id="gFe" x1="0" x2="1"><stop offset="0" stop-color="#323D45"/><stop offset=".5" stop-color="#8C97A0"/><stop offset="1" stop-color="#323D45"/></linearGradient>
<linearGradient id="liqB" x1="0" y1="0" x2="0" y2="1"><stop offset="0" stop-color="#6DB4FF" stop-opacity=".75"/><stop offset="1" stop-color="#2F7AE0" stop-opacity=".85"/></linearGradient>
<linearGradient id="liqM" x1="0" y1="0" x2="0" y2="1"><stop offset="0" stop-color="#FFB366" stop-opacity=".9"/><stop offset="1" stop-color="#F26A21" stop-opacity=".9"/></linearGradient>
<linearGradient id="liqW" x1="0" y1="0" x2="0" y2="1"><stop offset="0" stop-color="#CFE3FF" stop-opacity=".7"/><stop offset="1" stop-color="#9CC2F5" stop-opacity=".8"/></linearGradient>
<filter id="sh" x="-20%" y="-20%" width="140%" height="150%"><feDropShadow dx="0" dy="4" stdDeviation="5" flood-color="#0E2240" flood-opacity=".18"/></filter>
<filter id="glow" x="-80%" y="-80%" width="260%" height="260%"><feGaussianBlur stdDeviation="3" result="b"/><feMerge><feMergeNode in="b"/><feMergeNode in="SourceGraphic"/></feMerge></filter>
</defs><defs><radialGradient id="bgj" cx="50%" cy="45%" r="75%"><stop offset="0" stop-color="#1F4377"/><stop offset="1" stop-color="#0E2240"/></radialGradient></defs><rect width="1280" height="800" fill="url(#bgj)"/><circle cx="640" cy="400" r="200" fill="none" stroke="#fff" stroke-opacity=".05" stroke-width="2"/><circle cx="640" cy="400" r="300" fill="none" stroke="#fff" stroke-opacity=".05" stroke-width="2"/><circle cx="640" cy="400" r="400" fill="none" stroke="#fff" stroke-opacity=".05" stroke-width="2"/><circle cx="640" cy="400" r="500" fill="none" stroke="#fff" stroke-opacity=".05" stroke-width="2"/><circle cx="640" cy="400" r="600" fill="none" stroke="#fff" stroke-opacity=".05" stroke-width="2"/><clipPath id="gl"><path d="M150,340 V644 Q150,670 176,670 H444 Q470,670 470,644 V340 Z"/></clipPath><clipPath id="gr"><path d="M810,340 V644 Q810,670 836,670 H1104 Q1130,670 1130,644 V340 Z"/></clipPath><rect x="150" y="440" width="320" height="230" fill="url(#liqW)" clip-path="url(#gl)"/><rect x="810" y="440" width="320" height="230" fill="url(#liqB)" clip-path="url(#gr)"/><circle cx="171.48702226102503" cy="478.0301767717262" r="5" fill="#6DB4FF" stroke="#fff" stroke-width="0.8" fill-opacity=".8"/><circle cx="279.5658106804109" cy="590.0373975968403" r="5" fill="#6DB4FF" stroke="#fff" stroke-width="0.8" fill-opacity=".8"/><circle cx="207.38822503295515" cy="478.0389383204399" r="5" fill="#6DB4FF" stroke="#fff" stroke-width="0.8" fill-opacity=".8"/><circle cx="233.83186940900185" cy="604.4881271374222" r="5" fill="#6DB4FF" stroke="#fff" stroke-width="0.8" fill-opacity=".8"/><circle cx="356.0553301663348" cy="482.7693907716063" r="5" fill="#6DB4FF" stroke="#fff" stroke-width="0.8" fill-opacity=".8"/><circle cx="320.127936303572" cy="543.7591822677076" r="5" fill="#6DB4FF" stroke="#fff" stroke-width="0.8" fill-opacity=".8"/><circle cx="285.1699036225664" cy="651.283363552719" r="5" fill="#6DB4FF" stroke="#fff" stroke-width="0.8" fill-opacity=".8"/><circle cx="434.9037440426499" cy="534.9773790757397" r="5" fill="#6DB4FF" stroke="#fff" stroke-width="0.8" fill-opacity=".8"/><circle cx="224.37332754197317" cy="520.7406441332413" r="5" fill="#6DB4FF" stroke="#fff" stroke-width="0.8" fill-opacity=".8"/><circle cx="438.86302997651717" cy="620.3818379287309" r="5" fill="#6DB4FF" stroke="#fff" stroke-width="0.8" fill-opacity=".8"/><circle cx="268.96316765447204" cy="495.95613083939634" r="5" fill="#6DB4FF" stroke="#fff" stroke-width="0.8" fill-opacity=".8"/><circle cx="405.54144279719503" cy="649.8396605087576" r="5" fill="#6DB4FF" stroke="#fff" stroke-width="0.8" fill-opacity=".8"/><circle cx="176.62499893051415" cy="600.0689772078524" r="5" fill="#6DB4FF" stroke="#fff" stroke-width="0.8" fill-opacity=".8"/><circle cx="414.61300248343707" cy="583.625534672583" r="5" fill="#6DB4FF" stroke="#fff" stroke-width="0.8" fill-opacity=".8"/><circle cx="179.76141577068407" cy="521.8579680435446" r="5" fill="#6DB4FF" stroke="#fff" stroke-width="0.8" fill-opacity=".8"/><circle cx="262.9533479691977" cy="533.6485448363237" r="5" fill="#6DB4FF" stroke="#fff" stroke-width="0.8" fill-opacity=".8"/><circle cx="351.68086812507545" cy="619.8899504096047" r="5" fill="#6DB4FF" stroke="#fff" stroke-width="0.8" fill-opacity=".8"/><circle cx="345.1455122665561" cy="562.9804827593863" r="5" fill="#6DB4FF" stroke="#fff" stroke-width="0.8" fill-opacity=".8"/><circle cx="222.75265675907713" cy="636.5193562478016" r="5" fill="#6DB4FF" stroke="#fff" stroke-width="0.8" fill-opacity=".8"/><circle cx="449.62968742329366" cy="494.5910761828945" r="5" fill="#6DB4FF" stroke="#fff" stroke-width="0.8" fill-opacity=".8"/><circle cx="309.473925871427" cy="610.5336982932583" r="5" fill="#6DB4FF" stroke="#fff" stroke-width="0.8" fill-opacity=".8"/><circle cx="385.981702945988" cy="505.9317933618415" r="5" fill="#6DB4FF" stroke="#fff" stroke-width="0.8" fill-opacity=".8"/><circle cx="267.02925425345313" cy="458.19256054586225" r="5" fill="#6DB4FF" stroke="#fff" stroke-width="0.8" fill-opacity=".8"/><circle cx="300.59874329396723" cy="482.19270429632473" r="5" fill="#6DB4FF" stroke="#fff" stroke-width="0.8" fill-opacity=".8"/><circle cx="253.32912990869022" cy="634.8636764900773" r="5" fill="#6DB4FF" stroke="#fff" stroke-width="0.8" fill-opacity=".8"/><circle cx="195.26359539016187" cy="568.5272172893183" r="5" fill="#6DB4FF" stroke="#fff" stroke-width="0.8" fill-opacity=".8"/><circle cx="322.053565411669" cy="640.4561278819104" r="5" fill="#6DB4FF" stroke="#fff" stroke-width="0.8" fill-opacity=".8"/><circle cx="325.4041289371657" cy="499.438507008524" r="5" fill="#6DB4FF" stroke="#fff" stroke-width="0.8" fill-opacity=".8"/><circle cx="181.669763422414" cy="643.1078943357334" r="5" fill="#6DB4FF" stroke="#fff" stroke-width="0.8" fill-opacity=".8"/><circle cx="411.96835936562906" cy="467.1502156819177" r="5" fill="#6DB4FF" stroke="#fff" stroke-width="0.8" fill-opacity=".8"/><circle cx="358.19620072349755" cy="523.1405992921591" r="5" fill="#6DB4FF" stroke="#fff" stroke-width="0.8" fill-opacity=".8"/><circle cx="388.55384816124223" cy="546.8053398450553" r="5" fill="#6DB4FF" stroke="#fff" stroke-width="0.8" fill-opacity=".8"/><circle cx="363.289486128118" cy="647.6166029361847" r="5" fill="#6DB4FF" stroke="#fff" stroke-width="0.8" fill-opacity=".8"/><circle cx="238.75797194791443" cy="553.7452353106828" r="5" fill="#6DB4FF" stroke="#fff" stroke-width="0.8" fill-opacity=".8"/><circle cx="849.9877866143383" cy="497.8688907351377" r="5" fill="#6DB4FF" stroke="#fff" stroke-width="0.8" fill-opacity=".8"/><circle cx="914.088447737191" cy="632.4418818548904" r="5" fill="#6DB4FF" stroke="#fff" stroke-width="0.8" fill-opacity=".8"/><circle cx="968.9357077993999" cy="597.1671518948365" r="5" fill="#6DB4FF" stroke="#fff" stroke-width="0.8" fill-opacity=".8"/><circle cx="856.46684444115" cy="555.7497032042359" r="5" fill="#6DB4FF" stroke="#fff" stroke-width="0.8" fill-opacity=".8"/><circle cx="1067.4327118114065" cy="558.4686649095356" r="5" fill="#6DB4FF" stroke="#fff" stroke-width="0.8" fill-opacity=".8"/><circle cx="1096.2950144552858" cy="628.8328261664443" r="5" fill="#6DB4FF" stroke="#fff" stroke-width="0.8" fill-opacity=".8"/><circle cx="933.3528309072873" cy="456.1462351554057" r="5" fill="#6DB4FF" stroke="#fff" stroke-width="0.8" fill-opacity=".8"/><circle cx="1042.495880916386" cy="480.77620451773294" r="5" fill="#6DB4FF" stroke="#fff" stroke-width="0.8" fill-opacity=".8"/><circle cx="830.672678395162" cy="599.2140938006847" r="5" fill="#6DB4FF" stroke="#fff" stroke-width="0.8" fill-opacity=".8"/><circle cx="1067.367115092591" cy="619.9691957564256" r="5" fill="#6DB4FF" stroke="#fff" stroke-width="0.8" fill-opacity=".8"/><circle cx="1098.7757990563287" cy="495.52736854155677" r="5" fill="#6DB4FF" stroke="#fff" stroke-width="0.8" fill-opacity=".8"/><circle cx="873.3100500452177" cy="459.93951982671126" r="5" fill="#6DB4FF" stroke="#fff" stroke-width="0.8" fill-opacity=".8"/><circle cx="842.0103598668692" cy="463.5002513296034" r="5" fill="#6DB4FF" stroke="#fff" stroke-width="0.8" fill-opacity=".8"/><circle cx="928.261196497138" cy="488.000591454871" r="5" fill="#6DB4FF" stroke="#fff" stroke-width="0.8" fill-opacity=".8"/><circle cx="875.5649472761022" cy="615.6138354484605" r="5" fill="#6DB4FF" stroke="#fff" stroke-width="0.8" fill-opacity=".8"/><circle cx="1037.6935092583142" cy="567.4303213722254" r="5" fill="#6DB4FF" stroke="#fff" stroke-width="0.8" fill-opacity=".8"/><circle cx="994.7346631766882" cy="500.9419125059865" r="5" fill="#6DB4FF" stroke="#fff" stroke-width="0.8" fill-opacity=".8"/><circle cx="941.7828059117794" cy="649.5033004634619" r="5" fill="#6DB4FF" stroke="#fff" stroke-width="0.8" fill-opacity=".8"/><circle cx="1015.9356960491114" cy="465.4600756778689" r="5" fill="#6DB4FF" stroke="#fff" stroke-width="0.8" fill-opacity=".8"/><circle cx="913.7702435354661" cy="531.386068366189" r="5" fill="#6DB4FF" stroke="#fff" stroke-width="0.8" fill-opacity=".8"/><circle cx="829.9137178006753" cy="642.5193135649292" r="5" fill="#6DB4FF" stroke="#fff" stroke-width="0.8" fill-opacity=".8"/><circle cx="1023.5911386680409" cy="642.5513044198624" r="5" fill="#6DB4FF" stroke="#fff" stroke-width="0.8" fill-opacity=".8"/><circle cx="977.1455596252284" cy="555.6991572208685" r="5" fill="#6DB4FF" stroke="#fff" stroke-width="0.8" fill-opacity=".8"/><circle cx="999.5838884588479" cy="617.0799942074328" r="5" fill="#6DB4FF" stroke="#fff" stroke-width="0.8" fill-opacity=".8"/><circle cx="1049.6815200946264" cy="517.8993179829865" r="5" fill="#6DB4FF" stroke="#fff" stroke-width="0.8" fill-opacity=".8"/><circle cx="1085.6740056580475" cy="529.9536568391595" r="5" fill="#6DB4FF" stroke="#fff" stroke-width="0.8" fill-opacity=".8"/><circle cx="899.978401039286" cy="563.6310601935688" r="5" fill="#6DB4FF" stroke="#fff" stroke-width="0.8" fill-opacity=".8"/><circle cx="970.8543986850902" cy="468.91569879461025" r="5" fill="#6DB4FF" stroke="#fff" stroke-width="0.8" fill-opacity=".8"/><circle cx="880.4583243374891" cy="649.6384783968077" r="5" fill="#6DB4FF" stroke="#fff" stroke-width="0.8" fill-opacity=".8"/><circle cx="918.439753201461" cy="596.1344553726146" r="5" fill="#6DB4FF" stroke="#fff" stroke-width="0.8" fill-opacity=".8"/><circle cx="973.4414489379445" cy="577.4796092483923" r="12" fill="#F26A21" stroke="#fff" stroke-width="1.5" /><text x="973.4414489379445" y="581.9796092483923" font-size="11" font-weight="800" fill="#fff" text-anchor="middle" font-family="Arial, 'Segoe UI', 'DejaVu Sans', sans-serif" >+</text><rect x="993.4414489379445" y="569.4796092483923" width="16" height="16" rx="4" fill="#25508C" stroke="#fff" stroke-width="1.5" /><text x="1001.4414489379445" y="581.9796092483923" font-size="11" font-weight="800" fill="#fff" text-anchor="middle" font-family="Arial, 'Segoe UI', 'DejaVu Sans', sans-serif" >−</text><circle cx="1034.6169572510519" cy="517.1394452558786" r="12" fill="#F26A21" stroke="#fff" stroke-width="1.5" /><text x="1034.6169572510519" y="521.6394452558786" font-size="11" font-weight="800" fill="#fff" text-anchor="middle" font-family="Arial, 'Segoe UI', 'DejaVu Sans', sans-serif" >+</text><rect x="1054.6169572510519" y="509.1394452558786" width="16" height="16" rx="4" fill="#25508C" stroke="#fff" stroke-width="1.5" /><text x="1062.6169572510519" y="521.6394452558786" font-size="11" font-weight="800" fill="#fff" text-anchor="middle" font-family="Arial, 'Segoe UI', 'DejaVu Sans', sans-serif" >−</text><circle cx="956.8416720003397" cy="634.2536540835681" r="12" fill="#F26A21" stroke="#fff" stroke-width="1.5" /><text x="956.8416720003397" y="638.7536540835681" font-size="11" font-weight="800" fill="#fff" text-anchor="middle" font-family="Arial, 'Segoe UI', 'DejaVu Sans', sans-serif" >+</text><rect x="976.8416720003397" y="626.2536540835681" width="16" height="16" rx="4" fill="#25508C" stroke="#fff" stroke-width="1.5" /><text x="984.8416720003397" y="638.7536540835681" font-size="11" font-weight="800" fill="#fff" text-anchor="middle" font-family="Arial, 'Segoe UI', 'DejaVu Sans', sans-serif" >−</text><circle cx="1066.0031668460645" cy="578.055370614166" r="12" fill="#F26A21" stroke="#fff" stroke-width="1.5" /><text x="1066.0031668460645" y="582.555370614166" font-size="11" font-weight="800" fill="#fff" text-anchor="middle" font-family="Arial, 'Segoe UI', 'DejaVu Sans', sans-serif" >+</text><rect x="1086.0031668460645" y="570.055370614166" width="16" height="16" rx="4" fill="#25508C" stroke="#fff" stroke-width="1.5" /><text x="1094.0031668460645" y="582.555370614166" font-size="11" font-weight="800" fill="#fff" text-anchor="middle" font-family="Arial, 'Segoe UI', 'DejaVu Sans', sans-serif" >−</text><circle cx="906.7210252181795" cy="522.574101150789" r="12" fill="#F26A21" stroke="#fff" stroke-width="1.5" /><text x="906.7210252181795" y="527.074101150789" font-size="11" font-weight="800" fill="#fff" text-anchor="middle" font-family="Arial, 'Segoe UI', 'DejaVu Sans', sans-serif" >+</text><rect x="926.7210252181795" y="514.574101150789" width="16" height="16" rx="4" fill="#25508C" stroke="#fff" stroke-width="1.5" /><text x="934.7210252181795" y="527.074101150789" font-size="11" font-weight="800" fill="#fff" text-anchor="middle" font-family="Arial, 'Segoe UI', 'DejaVu Sans', sans-serif" >−</text><circle cx="955.0329404988605" cy="478.9416672015515" r="12" fill="#F26A21" stroke="#fff" stroke-width="1.5" /><text x="955.0329404988605" y="483.4416672015515" font-size="11" font-weight="800" fill="#fff" text-anchor="middle" font-family="Arial, 'Segoe UI', 'DejaVu Sans', sans-serif" >+</text><rect x="975.0329404988605" y="470.9416672015515" width="16" height="16" rx="4" fill="#25508C" stroke="#fff" stroke-width="1.5" /><text x="983.0329404988605" y="483.4416672015515" font-size="11" font-weight="800" fill="#fff" text-anchor="middle" font-family="Arial, 'Segoe UI', 'DejaVu Sans', sans-serif" >−</text><circle cx="845.8928494989091" cy="636.6038117624902" r="12" fill="#F26A21" stroke="#fff" stroke-width="1.5" /><text x="845.8928494989091" y="641.1038117624902" font-size="11" font-weight="800" fill="#fff" text-anchor="middle" font-family="Arial, 'Segoe UI', 'DejaVu Sans', sans-serif" >+</text><rect x="865.8928494989091" y="628.6038117624902" width="16" height="16" rx="4" fill="#25508C" stroke="#fff" stroke-width="1.5" /><text x="873.8928494989091" y="641.1038117624902" font-size="11" font-weight="800" fill="#fff" text-anchor="middle" font-family="Arial, 'Segoe UI', 'DejaVu Sans', sans-serif" >−</text><circle cx="833.5804758650085" cy="559.1962182666773" r="12" fill="#F26A21" stroke="#fff" stroke-width="1.5" /><text x="833.5804758650085" y="563.6962182666773" font-size="11" font-weight="800" fill="#fff" text-anchor="middle" font-family="Arial, 'Segoe UI', 'DejaVu Sans', sans-serif" >+</text><rect x="853.5804758650085" y="551.1962182666773" width="16" height="16" rx="4" fill="#25508C" stroke="#fff" stroke-width="1.5" /><text x="861.5804758650085" y="563.6962182666773" font-size="11" font-weight="800" fill="#fff" text-anchor="middle" font-family="Arial, 'Segoe UI', 'DejaVu Sans', sans-serif" >−</text><circle cx="840.3090565452462" cy="484.86932903935815" r="12" fill="#F26A21" stroke="#fff" stroke-width="1.5" /><text x="840.3090565452462" y="489.36932903935815" font-size="11" font-weight="800" fill="#fff" text-anchor="middle" font-family="Arial, 'Segoe UI', 'DejaVu Sans', sans-serif" >+</text><rect x="860.3090565452462" y="476.86932903935815" width="16" height="16" rx="4" fill="#25508C" stroke="#fff" stroke-width="1.5" /><text x="868.3090565452462" y="489.36932903935815" font-size="11" font-weight="800" fill="#fff" text-anchor="middle" font-family="Arial, 'Segoe UI', 'DejaVu Sans', sans-serif" >−</text><circle cx="318.10190722331544" cy="401.00227983249033" r="5" fill="#9CC2F5" fill-opacity=".9"/><circle cx="406.1313374654012" cy="422.9051248885215" r="5" fill="#9CC2F5" fill-opacity=".9"/><circle cx="417.0122276912295" cy="385.52870613947556" r="5" fill="#9CC2F5" fill-opacity=".9"/><circle cx="255.7314543092064" cy="366.6173027521626" r="5" fill="#9CC2F5" fill-opacity=".9"/><circle cx="313.26987378530015" cy="370.83763440515514" r="5" fill="#9CC2F5" fill-opacity=".9"/><circle cx="246.78427858040448" cy="402.7409742780236" r="5" fill="#9CC2F5" fill-opacity=".9"/><circle cx="194.19289100426323" cy="364.28632680955684" r="5" fill="#9CC2F5" fill-opacity=".9"/><circle cx="348.2730916649243" cy="380.43700729841174" r="5" fill="#9CC2F5" fill-opacity=".9"/><circle cx="287.6202735478497" cy="392.3334416403292" r="5" fill="#9CC2F5" fill-opacity=".9"/><circle cx="199.21044114005974" cy="396.72168613080265" r="5" fill="#9CC2F5" fill-opacity=".9"/><circle cx="983.6344895802702" cy="412.53786652699694" r="5" fill="#9CC2F5" fill-opacity=".9"/><circle cx="1039.2458842346891" cy="420.5531586765007" r="5" fill="#9CC2F5" fill-opacity=".9"/><circle cx="910.0539025730127" cy="427.5900724355161" r="5" fill="#9CC2F5" fill-opacity=".9"/><circle cx="1097.4661381836631" cy="360.78931739007396" r="5" fill="#9CC2F5" fill-opacity=".9"/><circle cx="837.061429436954" cy="407.25587364086596" r="5" fill="#9CC2F5" fill-opacity=".9"/><circle cx="900" cy="600" r="10" fill="#fff" stroke="#fff" stroke-width="1.5" fill-opacity=".35" stroke-opacity=".8"/><circle cx="960" cy="560" r="7" fill="#fff" stroke="#fff" stroke-width="1.5" fill-opacity=".35" stroke-opacity=".8"/><circle cx="1030" cy="610" r="9" fill="#fff" stroke="#fff" stroke-width="1.5" fill-opacity=".35" stroke-opacity=".8"/><circle cx="1080" cy="570" r="6" fill="#fff" stroke="#fff" stroke-width="1.5" fill-opacity=".35" stroke-opacity=".8"/><circle cx="1000" cy="500" r="8" fill="#fff" stroke="#fff" stroke-width="1.5" fill-opacity=".35" stroke-opacity=".8"/><path d="M150,340 V644 Q150,670 176,670 H444 Q470,670 470,644 V340" fill="rgba(255,255,255,.07)" stroke="#fff" stroke-opacity=".7" stroke-width="6" stroke-linejoin="round"/><path d="M810,340 V644 Q810,670 836,670 H1104 Q1130,670 1130,644 V340" fill="rgba(255,255,255,.07)" stroke="#fff" stroke-opacity=".7" stroke-width="6" stroke-linejoin="round"/><line x1="136" y1="340" x2="156" y2="340" stroke="#fff" stroke-width="6" stroke-linecap="round"/><line x1="464" y1="340" x2="484" y2="340" stroke="#fff" stroke-width="6" stroke-linecap="round"/><line x1="796" y1="340" x2="816" y2="340" stroke="#fff" stroke-width="6" stroke-linecap="round"/><line x1="1124" y1="340" x2="1144" y2="340" stroke="#fff" stroke-width="6" stroke-linecap="round"/><rect x="388" y="170" width="14" height="390" rx="7" fill="#fff" stroke="#0E2240" stroke-width="2.5" /><rect x="392" y="250.39999999999998" width="6" height="309.6" rx="3" fill="#E04B4B" /><circle cx="395" cy="569" r="12" fill="#E04B4B" stroke="#0E2240" stroke-width="2.5" /><line x1="404" y1="180.0" x2="411" y2="180.0" stroke="#5A6B84" stroke-width="2" stroke-linecap="round"/><line x1="404" y1="270.95238095238096" x2="411" y2="270.95238095238096" stroke="#5A6B84" stroke-width="2" stroke-linecap="round"/><line x1="404" y1="361.9047619047619" x2="411" y2="361.9047619047619" stroke="#5A6B84" stroke-width="2" stroke-linecap="round"/><line x1="404" y1="452.85714285714283" x2="411" y2="452.85714285714283" stroke="#5A6B84" stroke-width="2" stroke-linecap="round"/><line x1="404" y1="543.8095238095239" x2="411" y2="543.8095238095239" stroke="#5A6B84" stroke-width="2" stroke-linecap="round"/><rect x="1048" y="150" width="14" height="410" rx="7" fill="#fff" stroke="#0E2240" stroke-width="2.5" /><rect x="1052" y="210.28000000000003" width="6" height="349.71999999999997" rx="3" fill="#E04B4B" /><circle cx="1055" cy="569" r="12" fill="#E04B4B" stroke="#0E2240" stroke-width="2.5" /><line x1="1064" y1="160.0" x2="1071" y2="160.0" stroke="#5A6B84" stroke-width="2" stroke-linecap="round"/><line x1="1064" y1="255.71428571428572" x2="1071" y2="255.71428571428572" stroke="#5A6B84" stroke-width="2" stroke-linecap="round"/><line x1="1064" y1="351.42857142857144" x2="1071" y2="351.42857142857144" stroke="#5A6B84" stroke-width="2" stroke-linecap="round"/><line x1="1064" y1="447.1428571428571" x2="1071" y2="447.1428571428571" stroke="#5A6B84" stroke-width="2" stroke-linecap="round"/><line x1="1064" y1="542.8571428571429" x2="1071" y2="542.8571428571429" stroke="#5A6B84" stroke-width="2" stroke-linecap="round"/><text x="395" y="140" font-size="30" font-weight="800" fill="#9CC2F5" text-anchor="middle" font-family="Arial, 'Segoe UI', 'DejaVu Sans', sans-serif" >100,0 °C</text><text x="1055" y="120" font-size="30" font-weight="800" fill="#FFB27A" text-anchor="middle" font-family="Arial, 'Segoe UI', 'DejaVu Sans', sans-serif" >101,8 °C</text><path d="M250,742 C230,718 242,706 250,684 C258,706 270,718 250,742 Z" fill="#F26A21"/><path d="M250,742 C241,728 247,720 250,708 C253,720 259,728 250,742 Z" fill="#FFC21A"/><path d="M360,742 C340,718 352,706 360,684 C368,706 380,718 360,742 Z" fill="#F26A21"/><path d="M360,742 C351,728 357,720 360,708 C363,720 369,728 360,742 Z" fill="#FFC21A"/><path d="M910,742 C890,718 902,706 910,684 C918,706 930,718 910,742 Z" fill="#F26A21"/><path d="M910,742 C901,728 907,720 910,708 C913,720 919,728 910,742 Z" fill="#FFC21A"/><path d="M1020,742 C1000,718 1012,706 1020,684 C1028,706 1040,718 1020,742 Z" fill="#F26A21"/><path d="M1020,742 C1011,728 1017,720 1020,708 C1023,720 1029,728 1020,742 Z" fill="#FFC21A"/><rect x="560" y="300" width="160" height="130" rx="16" fill="rgba(255,255,255,.08)" stroke="rgba(255,255,255,.3)" stroke-width="2" /><text x="640" y="340" font-size="34" font-weight="800" fill="#FFC21A" text-anchor="middle" font-family="Georgia, 'Times New Roman', serif" >ΔTb</text><text x="640" y="374" font-size="26" font-weight="800" fill="#fff" text-anchor="middle" font-family="Arial, 'Segoe UI', 'DejaVu Sans', sans-serif" >= 1,8 °C</text><text x="640" y="408" font-size="17" font-weight="700" fill="#9CC2F5" text-anchor="middle" font-family="Arial, 'Segoe UI', 'DejaVu Sans', sans-serif" >Kb × m × i</text><text x="310" y="784" font-size="24" font-weight="800" fill="#9CC2F5" text-anchor="middle" font-family="Arial, 'Segoe UI', 'DejaVu Sans', sans-serif" >AIR MURNI</text><text x="970" y="784" font-size="24" font-weight="800" fill="#FFB27A" text-anchor="middle" font-family="Arial, 'Segoe UI', 'DejaVu Sans', sans-serif" >LARUTAN NaCl</text></svg>