<svg xmlns="http://www.w3.org/2000/svg" viewBox="0 0 600 720" width="600" height="720"><defs>
<linearGradient id="bgc" x1="0" y1="0" x2="0" y2="1"><stop offset="0" stop-color="#FFFFFF"/><stop offset="1" stop-color="#E6ECF6"/></linearGradient>
<linearGradient id="hdr" x1="0" y1="0" x2="1" y2="0"><stop offset="0" stop-color="#16315A"/><stop offset="1" stop-color="#0E2240"/></linearGradient>
<linearGradient id="gC" x1="0" x2="1"><stop offset="0" stop-color="#262C33"/><stop offset=".5" stop-color="#6D7986"/><stop offset="1" stop-color="#262C33"/></linearGradient>
<linearGradient id="gCu" x1="0" x2="1"><stop offset="0" stop-color="#9A4F22"/><stop offset=".5" stop-color="#F0AA72"/><stop offset="1" stop-color="#9A4F22"/></linearGradient>
<linearGradient id="gAg" x1="0" x2="1"><stop offset="0" stop-color="#8A909A"/><stop offset=".5" stop-color="#F4F6FA"/><stop offset="1" stop-color="#8A909A"/></linearGradient>
<linearGradient id="gZn" x1="0" x2="1"><stop offset="0" stop-color="#6F7E88"/><stop offset=".5" stop-color="#D3DEE6"/><stop offset="1" stop-color="#6F7E88"/></linearGradient>
<linearGradient id="gFe" x1="0" x2="1"><stop offset="0" stop-color="#323D45"/><stop offset=".5" stop-color="#8C97A0"/><stop offset="1" stop-color="#323D45"/></linearGradient>
<linearGradient id="liqB" x1="0" y1="0" x2="0" y2="1"><stop offset="0" stop-color="#6DB4FF" stop-opacity=".75"/><stop offset="1" stop-color="#2F7AE0" stop-opacity=".85"/></linearGradient>
<linearGradient id="liqM" x1="0" y1="0" x2="0" y2="1"><stop offset="0" stop-color="#FFB366" stop-opacity=".9"/><stop offset="1" stop-color="#F26A21" stop-opacity=".9"/></linearGradient>
<linearGradient id="liqW" x1="0" y1="0" x2="0" y2="1"><stop offset="0" stop-color="#CFE3FF" stop-opacity=".7"/><stop offset="1" stop-color="#9CC2F5" stop-opacity=".8"/></linearGradient>
<filter id="sh" x="-20%" y="-20%" width="140%" height="150%"><feDropShadow dx="0" dy="4" stdDeviation="5" flood-color="#0E2240" flood-opacity=".18"/></filter>
<filter id="glow" x="-80%" y="-80%" width="260%" height="260%"><feGaussianBlur stdDeviation="3" result="b"/><feMerge><feMergeNode in="b"/><feMergeNode in="SourceGraphic"/></feMerge></filter>
</defs><rect x="0" y="0" width="600" height="720" rx="28" fill="url(#bgc)" /><path d="M0,28 Q0,0 28,0 H572 Q600,0 600,28 V92 H0 Z" fill="url(#hdr)"/><rect x="0" y="90" width="600" height="4" rx="0" fill="#FFC21A" /><text x="300.0" y="44" font-size="27" font-weight="800" fill="#fff" text-anchor="middle" font-family="Georgia, 'Times New Roman', serif" >Konsentrasi dan Luas Permukaan</text><text x="300.0" y="70" font-size="14.5" font-weight="700" fill="#FFC21A" text-anchor="middle" font-family="Arial, 'Segoe UI', 'DejaVu Sans', sans-serif" >Seberapa sering partikel bertemu</text><rect x="30" y="108" width="540" height="270" rx="16" fill="#fff" stroke="#D7DEEA" stroke-width="2" filter="url(#sh)"/><rect x="52" y="150" width="206" height="170" rx="12" fill="#F6F8FC" stroke="#25508C" stroke-width="3" /><rect x="60.0" y="121.0" width="190" height="26" rx="13.0" fill="#25508C" /><text x="155" y="138.55" font-size="13" font-weight="800" fill="#fff" text-anchor="middle" font-family="Arial, 'Segoe UI', 'DejaVu Sans', sans-serif" >Konsentrasi rendah</text><circle cx="108.01655997326334" cy="180.44324479230022" r="8" fill="#25508C" stroke="#fff" stroke-width="1.8" /><text x="108.01655997326334" y="183.4832447923002" font-size="8.4" font-weight="800" fill="#fff" text-anchor="middle" font-family="Arial, 'Segoe UI', 'DejaVu Sans', sans-serif" ></text><circle cx="77.839687030967" cy="222.22274202791047" r="8" fill="#25508C" stroke="#fff" stroke-width="1.8" /><text x="77.839687030967" y="225.26274202791046" font-size="8.4" font-weight="800" fill="#fff" text-anchor="middle" font-family="Arial, 'Segoe UI', 'DejaVu Sans', sans-serif" ></text><circle cx="229.39599766961396" cy="278.0633292094132" r="8" fill="#F26A21" stroke="#fff" stroke-width="1.8" /><text x="229.39599766961396" y="281.10332920941323" font-size="8.4" font-weight="800" fill="#fff" text-anchor="middle" font-family="Arial, 'Segoe UI', 'DejaVu Sans', sans-serif" ></text><circle cx="202.19894324596805" cy="197.06994459664446" r="8" fill="#F26A21" stroke="#fff" stroke-width="1.8" /><text x="202.19894324596805" y="200.10994459664445" font-size="8.4" font-weight="800" fill="#fff" text-anchor="middle" font-family="Arial, 'Segoe UI', 'DejaVu Sans', sans-serif" ></text><circle cx="161.5290414551168" cy="204.73557008180302" r="8" fill="#25508C" stroke="#fff" stroke-width="1.8" /><text x="161.5290414551168" y="207.775570081803" font-size="8.4" font-weight="800" fill="#fff" text-anchor="middle" font-family="Arial, 'Segoe UI', 'DejaVu Sans', sans-serif" ></text><text x="155" y="346" font-size="13.5" font-weight="800" fill="#5A6B84" text-anchor="middle" font-family="Arial, 'Segoe UI', 'DejaVu Sans', sans-serif" >tumbukan jarang</text><rect x="312" y="150" width="206" height="170" rx="12" fill="#F6F8FC" stroke="#25508C" stroke-width="3" /><rect x="320.0" y="121.0" width="190" height="26" rx="13.0" fill="#F26A21" /><text x="415" y="138.55" font-size="13" font-weight="800" fill="#fff" text-anchor="middle" font-family="Arial, 'Segoe UI', 'DejaVu Sans', sans-serif" >Konsentrasi tinggi</text><circle cx="467.214534909576" cy="281.07356592476174" r="8" fill="#25508C" stroke="#fff" stroke-width="1.8" /><text x="467.214534909576" y="284.11356592476176" font-size="8.4" font-weight="800" fill="#fff" text-anchor="middle" font-family="Arial, 'Segoe UI', 'DejaVu Sans', sans-serif" ></text><circle cx="412.33616377170824" cy="202.6270076122521" r="8" fill="#25508C" stroke="#fff" stroke-width="1.8" /><text x="412.33616377170824" y="205.6670076122521" font-size="8.4" font-weight="800" fill="#fff" text-anchor="middle" font-family="Arial, 'Segoe UI', 'DejaVu Sans', sans-serif" ></text><circle cx="326.08040524954265" cy="258.79459880372747" r="8" fill="#25508C" stroke="#fff" stroke-width="1.8" /><text x="326.08040524954265" y="261.8345988037275" font-size="8.4" font-weight="800" fill="#fff" text-anchor="middle" font-family="Arial, 'Segoe UI', 'DejaVu Sans', sans-serif" ></text><circle cx="409.7052577574712" cy="272.362288913705" r="8" fill="#25508C" stroke="#fff" stroke-width="1.8" /><text x="409.7052577574712" y="275.40228891370504" font-size="8.4" font-weight="800" fill="#fff" text-anchor="middle" font-family="Arial, 'Segoe UI', 'DejaVu Sans', sans-serif" ></text><circle cx="374.5402592496108" cy="278.2681676427645" r="8" fill="#25508C" stroke="#fff" stroke-width="1.8" /><text x="374.5402592496108" y="281.30816764276454" font-size="8.4" font-weight="800" fill="#fff" text-anchor="middle" font-family="Arial, 'Segoe UI', 'DejaVu Sans', sans-serif" ></text><circle cx="455.9088202067188" cy="223.9609017631425" r="8" fill="#F26A21" stroke="#fff" stroke-width="1.8" /><text x="455.9088202067188" y="227.00090176314248" font-size="8.4" font-weight="800" fill="#fff" text-anchor="middle" font-family="Arial, 'Segoe UI', 'DejaVu Sans', sans-serif" ></text><circle cx="360.3513078860076" cy="243.5061231697598" r="8" fill="#F26A21" stroke="#fff" stroke-width="1.8" /><text x="360.3513078860076" y="246.5461231697598" font-size="8.4" font-weight="800" fill="#fff" text-anchor="middle" font-family="Arial, 'Segoe UI', 'DejaVu Sans', sans-serif" ></text><circle cx="469.3120808731172" cy="203.17294762139028" r="8" fill="#25508C" stroke="#fff" stroke-width="1.8" /><text x="469.3120808731172" y="206.21294762139027" font-size="8.4" font-weight="800" fill="#fff" text-anchor="middle" font-family="Arial, 'Segoe UI', 'DejaVu Sans', sans-serif" ></text><circle cx="342.57795741007493" cy="278.0395807727596" r="8" fill="#25508C" stroke="#fff" stroke-width="1.8" /><text x="342.57795741007493" y="281.07958077275964" font-size="8.4" font-weight="800" fill="#fff" text-anchor="middle" font-family="Arial, 'Segoe UI', 'DejaVu Sans', sans-serif" ></text><circle cx="342.6929066068773" cy="193.6026862718508" r="8" fill="#25508C" stroke="#fff" stroke-width="1.8" /><text x="342.6929066068773" y="196.6426862718508" font-size="8.4" font-weight="800" fill="#fff" text-anchor="middle" font-family="Arial, 'Segoe UI', 'DejaVu Sans', sans-serif" ></text><circle cx="439.0155556780184" cy="206.76569865388518" r="8" fill="#F26A21" stroke="#fff" stroke-width="1.8" /><text x="439.0155556780184" y="209.80569865388517" font-size="8.4" font-weight="800" fill="#fff" text-anchor="middle" font-family="Arial, 'Segoe UI', 'DejaVu Sans', sans-serif" ></text><circle cx="495.34439466991716" cy="248.39977155914107" r="8" fill="#F26A21" stroke="#fff" stroke-width="1.8" /><text x="495.34439466991716" y="251.43977155914106" font-size="8.4" font-weight="800" fill="#fff" text-anchor="middle" font-family="Arial, 'Segoe UI', 'DejaVu Sans', sans-serif" ></text><circle cx="390.1475626426411" cy="296.5832101149949" r="8" fill="#25508C" stroke="#fff" stroke-width="1.8" /><text x="390.1475626426411" y="299.62321011499495" font-size="8.4" font-weight="800" fill="#fff" text-anchor="middle" font-family="Arial, 'Segoe UI', 'DejaVu Sans', sans-serif" ></text><circle cx="440.73378231127407" cy="263.7074493835656" r="8" fill="#25508C" stroke="#fff" stroke-width="1.8" /><text x="440.73378231127407" y="266.7474493835656" font-size="8.4" font-weight="800" fill="#fff" text-anchor="middle" font-family="Arial, 'Segoe UI', 'DejaVu Sans', sans-serif" ></text><circle cx="331.05911250978085" cy="216.5926990083262" r="8" fill="#F26A21" stroke="#fff" stroke-width="1.8" /><text x="331.05911250978085" y="219.6326990083262" font-size="8.4" font-weight="800" fill="#fff" text-anchor="middle" font-family="Arial, 'Segoe UI', 'DejaVu Sans', sans-serif" ></text><circle cx="430.869899774239" cy="178.55624480561912" r="8" fill="#F26A21" stroke="#fff" stroke-width="1.8" /><text x="430.869899774239" y="181.5962448056191" font-size="8.4" font-weight="800" fill="#fff" text-anchor="middle" font-family="Arial, 'Segoe UI', 'DejaVu Sans', sans-serif" ></text><text x="415" y="346" font-size="13.5" font-weight="800" fill="#F26A21" text-anchor="middle" font-family="Arial, 'Segoe UI', 'DejaVu Sans', sans-serif" >tumbukan sering</text><text x="300" y="244" font-size="30" font-weight="800" fill="#5A6B84" text-anchor="middle" font-family="Arial, 'Segoe UI', 'DejaVu Sans', sans-serif" >→</text><rect x="30" y="396" width="540" height="296" rx="16" fill="#fff" stroke="#D7DEEA" stroke-width="2" filter="url(#sh)"/><rect x="60" y="452" width="170" height="150" rx="10" fill="#DDE5F2" stroke="#0E2240" stroke-width="3" /><text x="145" y="536" font-size="14.5" font-weight="800" fill="#0E2240" text-anchor="middle" font-family="Arial, 'Segoe UI', 'DejaVu Sans', sans-serif" >bongkahan</text><text x="145" y="636" font-size="13.5" font-weight="800" fill="#5A6B84" text-anchor="middle" font-family="Arial, 'Segoe UI', 'DejaVu Sans', sans-serif" >luas permukaan kecil</text><text x="145" y="656" font-size="13" font-weight="700" fill="#5A6B84" text-anchor="middle" font-family="Arial, 'Segoe UI', 'DejaVu Sans', sans-serif" >tumbukan sedikit</text><rect x="70.0" y="411.0" width="150" height="26" rx="13.0" fill="#25508C" /><text x="145" y="428.55" font-size="13" font-weight="800" fill="#fff" text-anchor="middle" font-family="Arial, 'Segoe UI', 'DejaVu Sans', sans-serif" >Satu bongkahan</text><line x1="240" y1="526" x2="322.0" y2="526.0" stroke="#0E2240" stroke-width="4" stroke-linecap="round"/><polygon points="330.0,526.0 320.1,530.8 320.1,521.2" fill="#0E2240"/><rect x="360.0" y="411.0" width="150" height="26" rx="13.0" fill="#F26A21" /><text x="435" y="428.375" font-size="12.5" font-weight="800" fill="#fff" text-anchor="middle" font-family="Arial, 'Segoe UI', 'DejaVu Sans', sans-serif" >Serbuk (sama massa)</text><rect x="432.16842895082414" y="538.6760403826447" width="16" height="16" rx="3" fill="#DDE5F2" stroke="#0E2240" stroke-width="2" /><rect x="468.61798951371924" y="464.53445082125296" width="16" height="16" rx="3" fill="#DDE5F2" stroke="#0E2240" stroke-width="2" /><rect x="344.0634841871129" y="497.9646468571245" width="16" height="16" rx="3" fill="#DDE5F2" stroke="#0E2240" stroke-width="2" /><rect x="394.069146500883" y="560.690119521852" width="16" height="16" rx="3" fill="#DDE5F2" stroke="#0E2240" stroke-width="2" /><rect x="473.2126040773501" y="530.6098135767936" width="16" height="16" rx="3" fill="#DDE5F2" stroke="#0E2240" stroke-width="2" /><rect x="369.60753099491956" y="507.36789003716683" width="16" height="16" rx="3" fill="#DDE5F2" stroke="#0E2240" stroke-width="2" /><rect x="372.83079125388883" y="574.4601093402225" width="16" height="16" rx="3" fill="#DDE5F2" stroke="#0E2240" stroke-width="2" /><rect x="353.17662220806454" y="561.9100984092596" width="16" height="16" rx="3" fill="#DDE5F2" stroke="#0E2240" stroke-width="2" /><rect x="406.02992263043586" y="502.2644567705255" width="16" height="16" rx="3" fill="#DDE5F2" stroke="#0E2240" stroke-width="2" /><rect x="502.05663988438675" y="446.6790192449284" width="16" height="16" rx="3" fill="#DDE5F2" stroke="#0E2240" stroke-width="2" /><rect x="438.69592412126326" y="457.100830424436" width="16" height="16" rx="3" fill="#DDE5F2" stroke="#0E2240" stroke-width="2" /><rect x="529.5554581770582" y="580.326674699031" width="16" height="16" rx="3" fill="#DDE5F2" stroke="#0E2240" stroke-width="2" /><rect x="455.2344856055239" y="512.654627261599" width="16" height="16" rx="3" fill="#DDE5F2" stroke="#0E2240" stroke-width="2" /><rect x="415.07046430422616" y="448.39119097787756" width="16" height="16" rx="3" fill="#DDE5F2" stroke="#0E2240" stroke-width="2" /><rect x="480.0022111960212" y="583.3140791328904" width="16" height="16" rx="3" fill="#DDE5F2" stroke="#0E2240" stroke-width="2" /><rect x="527.4977162151638" y="539.5578302567093" width="16" height="16" rx="3" fill="#DDE5F2" stroke="#0E2240" stroke-width="2" /><rect x="363.62815621459305" y="477.83602953160926" width="16" height="16" rx="3" fill="#DDE5F2" stroke="#0E2240" stroke-width="2" /><rect x="495.92034385625703" y="516.0017457741113" width="16" height="16" rx="3" fill="#DDE5F2" stroke="#0E2240" stroke-width="2" /><rect x="415.76676290360837" y="555.1562750894541" width="16" height="16" rx="3" fill="#DDE5F2" stroke="#0E2240" stroke-width="2" /><rect x="375.8294102610378" y="544.2089577274421" width="16" height="16" rx="3" fill="#DDE5F2" stroke="#0E2240" stroke-width="2" /><rect x="432.4898622812336" y="582.0597265600989" width="16" height="16" rx="3" fill="#DDE5F2" stroke="#0E2240" stroke-width="2" /><rect x="411.19662777007557" y="471.24944840645094" width="16" height="16" rx="3" fill="#DDE5F2" stroke="#0E2240" stroke-width="2" /><rect x="488.4278242905508" y="493.217722370131" width="16" height="16" rx="3" fill="#DDE5F2" stroke="#0E2240" stroke-width="2" /><rect x="387.9014783877114" y="445.24269908817524" width="16" height="16" rx="3" fill="#DDE5F2" stroke="#0E2240" stroke-width="2" /><rect x="349.6043588447242" y="533.1471016460092" width="16" height="16" rx="3" fill="#DDE5F2" stroke="#0E2240" stroke-width="2" /><rect x="511.9204988060512" y="467.3492608117072" width="16" height="16" rx="3" fill="#DDE5F2" stroke="#0E2240" stroke-width="2" /><rect x="453.802733970029" y="573.7384665778366" width="16" height="16" rx="3" fill="#DDE5F2" stroke="#0E2240" stroke-width="2" /><rect x="513.7232025107003" y="558.8733044077608" width="16" height="16" rx="3" fill="#DDE5F2" stroke="#0E2240" stroke-width="2" /><rect x="519.594259998533" y="496.6470467546194" width="16" height="16" rx="3" fill="#DDE5F2" stroke="#0E2240" stroke-width="2" /><rect x="436.9810349209803" y="495.9609725109111" width="16" height="16" rx="3" fill="#DDE5F2" stroke="#0E2240" stroke-width="2" /><rect x="358.006503724394" y="452.12608355666197" width="16" height="16" rx="3" fill="#DDE5F2" stroke="#0E2240" stroke-width="2" /><rect x="505.84732833161434" y="586.4975743653247" width="16" height="16" rx="3" fill="#DDE5F2" stroke="#0E2240" stroke-width="2" /><rect x="386.31058776128623" y="472.25995939559164" width="16" height="16" rx="3" fill="#DDE5F2" stroke="#0E2240" stroke-width="2" /><rect x="477.8727451530887" y="552.2154169998512" width="16" height="16" rx="3" fill="#DDE5F2" stroke="#0E2240" stroke-width="2" /><text x="435" y="636" font-size="13.5" font-weight="800" fill="#F26A21" text-anchor="middle" font-family="Arial, 'Segoe UI', 'DejaVu Sans', sans-serif" >luas permukaan besar</text><text x="435" y="656" font-size="13" font-weight="700" fill="#F26A21" text-anchor="middle" font-family="Arial, 'Segoe UI', 'DejaVu Sans', sans-serif" >tumbukan lebih banyak</text></svg>